<svg id="_x34_" xmlns="http://www.w3.org/2000/svg" xmlns:xlink="http://www.w3.org/1999/xlink" width="33.56" height="19.58" viewBox="0 0 33.56 19.58">
  <defs>
    <clipPath id="clip-path">
      <rect id="Rectangle_10893" data-name="Rectangle 10893" width="33.56" height="19.58"/>
    </clipPath>
  </defs>
  <g id="UNITED_KINGDOM_2_">
    <g id="Group_11045" data-name="Group 11045">
      <g id="Group_11044" data-name="Group 11044">
        <g id="Group_11030" data-name="Group 11030" clip-path="url(#clip-path)">
          <rect id="Rectangle_10892" data-name="Rectangle 10892" width="33.56" height="19.58" fill="#fff"/>
        </g>
        <g id="Group_11031" data-name="Group 11031" clip-path="url(#clip-path)">
          <path id="Path_12964" data-name="Path 12964" d="M22.47,7.08,33.56.87V0H32.8L20.15,7.08Z" fill="#bd0034"/>
        </g>
        <g id="Group_11032" data-name="Group 11032" clip-path="url(#clip-path)">
          <path id="Path_12965" data-name="Path 12965" d="M21.95,12.89l11.61,6.5v-1.3l-9.29-5.2Z" fill="#bd0034"/>
        </g>
        <g id="Group_11033" data-name="Group 11033" clip-path="url(#clip-path)">
          <path id="Path_12966" data-name="Path 12966" d="M0,1.49,9.93,7.08h2.33L0,.19Z" fill="#bd0034"/>
        </g>
        <g id="Group_11034" data-name="Group 11034" clip-path="url(#clip-path)">
          <path id="Path_12967" data-name="Path 12967" d="M11.73,12.89,0,19.46v.12H2.12l11.93-6.69Z" fill="#bd0034"/>
        </g>
        <g id="Group_11035" data-name="Group 11035" clip-path="url(#clip-path)">
          <path id="Path_12968" data-name="Path 12968" d="M31.27,0H19.51V6.58Z" fill="#1a237b"/>
        </g>
        <g id="Group_11036" data-name="Group 11036" clip-path="url(#clip-path)">
          <path id="Path_12969" data-name="Path 12969" d="M14.33,0H2.62L14.33,6.58Z" fill="#1a237b"/>
        </g>
        <g id="Group_11037" data-name="Group 11037" clip-path="url(#clip-path)">
          <path id="Path_12970" data-name="Path 12970" d="M33.56,7.08V2.59L25.59,7.08Z" fill="#1a237b"/>
        </g>
        <g id="Group_11038" data-name="Group 11038" clip-path="url(#clip-path)">
          <path id="Path_12971" data-name="Path 12971" d="M33.56,17.33V12.89H25.59Z" fill="#1a237b"/>
        </g>
        <g id="Group_11039" data-name="Group 11039" clip-path="url(#clip-path)">
          <path id="Path_12972" data-name="Path 12972" d="M3.29,19.58H14.33V13.39Z" fill="#1a237b"/>
        </g>
        <g id="Group_11040" data-name="Group 11040" clip-path="url(#clip-path)">
          <path id="Path_12973" data-name="Path 12973" d="M19.51,19.58H30.59L19.51,13.39Z" fill="#1a237b"/>
        </g>
        <g id="Group_11041" data-name="Group 11041" clip-path="url(#clip-path)">
          <path id="Path_12974" data-name="Path 12974" d="M0,12.89v4.65l8.25-4.65Z" fill="#1a237b"/>
        </g>
        <g id="Group_11042" data-name="Group 11042" clip-path="url(#clip-path)">
          <path id="Path_12975" data-name="Path 12975" d="M0,7.08H8.25L0,2.43Z" fill="#1a237b"/>
        </g>
        <g id="Group_11043" data-name="Group 11043" clip-path="url(#clip-path)">
          <path id="Path_12976" data-name="Path 12976" d="M15.36,0V8.24H0v3.49H15.36v7.85h3.12V11.73H33.56V8.24H18.48V0Z" fill="#bd0034"/>
        </g>
      </g>
    </g>
  </g>
</svg>
